<svg xmlns="http://www.w3.org/2000/svg" width="512" height="512" viewBox="0 0 512 512">
  <rect x="0" y="0" width="512" height="512" rx="112" fill="#B65A40"/>
  <rect x="0" y="0" width="512" height="512" rx="112" fill="url(#g)"/>
  <defs><radialGradient id="g" cx="0.28" cy="0.18" r="0.9">
    <stop offset="0" stop-color="#ffffff" stop-opacity="0.10"/>
    <stop offset="1" stop-color="#000000" stop-opacity="0.06"/>
  </radialGradient></defs>
  
  <!-- 책 그림자 -->
  <path d="M256 206 C210 182 150 178 122 190 L122 326 C150 314 210 318 256 340 Z" fill="#000000" opacity="0.10" transform="translate(0,6)"/>
  <path d="M256 206 C302 182 362 178 390 190 L390 326 C362 314 302 318 256 340 Z" fill="#000000" opacity="0.10" transform="translate(0,6)"/>
  <!-- 왼쪽 페이지 -->
  <path d="M256 206 C210 182 150 178 122 190 L122 326 C150 314 210 318 256 340 Z" fill="#FBF8F2"/>
  <!-- 오른쪽 페이지 -->
  <path d="M256 206 C302 182 362 178 390 190 L390 326 C362 314 302 318 256 340 Z" fill="#FBF8F2"/>
  <!-- 책등 -->
  <line x1="256" y1="206" x2="256" y2="340" stroke="#E3DACB" stroke-width="4"/>
  <!-- 왼쪽 줄들 (믿음의 예측) -->
  <line x1="150" y1="223" x2="232" y2="221" stroke="#6B6357" stroke-width="6" stroke-linecap="round" opacity="0.55"/>
  <line x1="150" y1="248" x2="232" y2="246" stroke="#B65A40" stroke-width="8" stroke-linecap="round"/>
  <line x1="150" y1="273" x2="232" y2="271" stroke="#6B6357" stroke-width="6" stroke-linecap="round" opacity="0.55"/>
  <line x1="150" y1="298" x2="220" y2="296" stroke="#6B6357" stroke-width="6" stroke-linecap="round" opacity="0.4"/>
  <!-- 오른쪽 줄들 (실제 결과) -->
  <line x1="280" y1="221" x2="362" y2="223" stroke="#6B6357" stroke-width="6" stroke-linecap="round" opacity="0.55"/>
  <line x1="280" y1="246" x2="338" y2="248" stroke="#6E7355" stroke-width="8" stroke-linecap="round"/>
  <line x1="280" y1="271" x2="362" y2="273" stroke="#6B6357" stroke-width="6" stroke-linecap="round" opacity="0.55"/>
  <line x1="280" y1="296" x2="350" y2="298" stroke="#6B6357" stroke-width="6" stroke-linecap="round" opacity="0.4"/>
  <!-- 반증 체크: 실제가 예측을 반증했음을 표시 -->
  <circle cx="330" cy="316" r="34" fill="#6E7355"/>
  <path d="M315 316 l11 12 l20 -24" fill="none" stroke="#FBF8F2" stroke-width="9" stroke-linecap="round" stroke-linejoin="round"/>
  
</svg>